<svg width="50" height="50" viewBox="0 0 50 50" fill="none" xmlns="http://www.w3.org/2000/svg">
<path d="M42.5262 0H7.47384C3.34614 0 0 3.34614 0 7.47384V42.5262C0 46.6539 3.34614 50 7.47384 50H42.5262C46.6539 50 50 46.6539 50 42.5262V7.47384C50 3.34614 46.6539 0 42.5262 0Z" fill="white"/>
<path d="M41.0913 17.7334C39.0087 17.7334 37.3228 19.4193 37.3228 21.5019C37.3228 23.5845 39.0087 25.2704 41.0913 25.2704C43.1739 25.2704 44.8598 23.5845 44.8598 21.5019C44.8598 19.4193 43.1739 17.7334 41.0913 17.7334Z" fill="#00A0FF"/>
<path d="M44.7065 18.4729C43.4985 17.0484 41.6864 16.4805 39.9554 16.9222C36.8 17.7156 33.933 19.122 31.4628 20.9882C31.1743 18.8335 29.3261 17.1747 27.0903 17.1747C26.9009 17.1747 26.7116 17.1927 26.5313 17.2107C26.2969 17.2288 26.0625 17.2648 25.8281 17.3279C22.6456 18.1393 19.7246 19.6089 17.2183 21.5742V14.5061C17.2183 12.0719 15.316 9.98931 12.8908 9.94423C10.4116 9.89915 8.39209 11.8916 8.39209 14.3618V35.5933C8.39209 38.0726 10.4025 40.0831 12.8818 40.0831H13.3235C14.2792 40.011 16.5782 39.452 17.8494 35.8548C17.8494 35.8368 17.8674 35.8187 17.8674 35.8007C18.7419 33.0059 20.4368 30.5627 22.6817 28.7866V35.4761C22.6817 37.0629 23.457 38.5865 24.8003 39.4249C26.8739 40.7051 29.3982 40.02 30.6694 38.2529C31.1292 37.6219 31.2824 36.9727 31.4628 36.2335C32.3282 32.7264 35.3214 29.5169 38.3506 27.7228C39.4866 27.0557 40.7758 26.4787 42.2544 26.091C44.7156 25.4689 46.2933 22.9716 45.6532 20.3481C45.4909 19.6629 45.1573 19.0319 44.7065 18.4909V18.4729ZM42.1642 25.6943C42.1642 25.6943 40.307 26.082 38.0351 27.3983C35.1411 29.0842 31.5079 27.0467 31.5079 23.6929C31.5079 22.1783 32.3102 20.7809 33.6085 19.9875C35.5738 18.7884 37.7376 17.8689 40.0546 17.2828C41.7314 16.8591 43.5075 17.4722 44.6074 18.9507C44.8869 19.3294 45.1033 19.7621 45.2385 20.2219C45.9507 22.7102 44.4812 25.1083 42.1732 25.6853L42.1642 25.6943Z" fill="#00A0FF"/>
</svg>
