<svg width="22" height="20" viewBox="0 0 22 20" fill="none" xmlns="http://www.w3.org/2000/svg">
<path d="M11 10.5858L15.2426 14.8284L13.8284 16.2426L12 14.415V20H10V14.413L8.17157 16.2426L6.75736 14.8284L11 10.5858ZM11 0C14.5934 0 17.5544 2.70761 17.9541 6.19395C20.2858 6.83154 22 8.9656 22 11.5C22 14.3688 19.8036 16.7246 17.0006 16.9776L17.0009 14.9644C18.6966 14.7214 20 13.2629 20 11.5C20 9.567 18.433 8 16.5 8C16.2912 8 16.0867 8.0183 15.8887 8.054C15.9616 7.7142 16 7.36158 16 7C16 4.23858 13.7614 2 11 2C8.23858 2 6 4.23858 6 7C6 7.36158 6.03838 7.7142 6.11205 8.0533C5.91331 8.0183 5.70879 8 5.5 8C3.567 8 2 9.567 2 11.5C2 13.2003 3.21241 14.6174 4.81986 14.934L5.00005 14.9646L5.00039 16.9776C2.19696 16.7252 0 14.3692 0 11.5C0 8.9656 1.71424 6.83154 4.04648 6.19411C4.44561 2.70761 7.40661 0 11 0Z" fill="#94A3B8"/>
</svg>
